<svg xmlns="http://www.w3.org/2000/svg" viewBox="0 0 200 200" fill="none">
  <!--
    Credit Speed logo
    - Navy stylized "C" with internal horizontal tongue (G/Speedo silhouette)
    - Gold inner chevron pointing leftward (speed/forward)
  -->

  <!-- Navy outer letterform (C with internal tongue) -->
  <path
    fill="#0E1E5C"
    d="M 100 22
       C 56.8 22 22 56.8 22 100
       C 22 143.2 56.8 178 100 178
       C 130.5 178 156.9 160.6 169.8 135.2
       L 116 135.2
       L 116 116
       L 178 116
       C 178.6 110.8 179 105.4 179 100
       C 179 56.8 143.2 22 100 22 Z
       M 100 42
       C 132.1 42 158 67.9 158 100
       C 158 100.4 158 100.7 158 101
       L 96 101
       L 96 117
       L 154 117
       C 145 137 124.4 152 100 152
       C 67.9 152 42 126.1 42 94
       C 42 67.9 67.9 42 100 42 Z"
  />

  <!-- Gold left-pointing chevron (speed/motion) -->
  <path
    fill="#D4A853"
    d="M 113 67
       L 80 100
       L 113 133
       L 134 133
       L 102 100
       L 134 67
       Z"
  />
</svg>
